<svg width="40" height="40" viewBox="0 0 40 40" fill="none" xmlns="http://www.w3.org/2000/svg">
<g clip-path="url(#clip0_602_17)">
<path fill-rule="evenodd" clip-rule="evenodd" d="M20.0144 0C8.94609 0 0 8.937 0 19.9936C0 28.8318 5.73286 36.3131 13.6856 38.9608C14.6815 39.1599 15.0442 38.5308 15.0442 38.0014C15.0442 37.5379 15.0121 35.949 15.0121 34.2935C9.44437 35.4855 8.28494 31.9102 8.28494 31.9102C7.39024 29.5931 6.0644 28.9975 6.0644 28.9975C4.2419 27.7727 6.19708 27.7727 6.19708 27.7727C8.21844 27.9052 9.27924 29.825 9.27924 29.825C11.0683 32.8703 13.9513 32.0099 15.1114 31.4815C15.2768 30.1904 15.8075 29.2966 16.3707 28.8003C11.9299 28.3365 7.25788 26.6154 7.25788 18.9354C7.25788 16.7508 8.05267 14.9632 9.31201 13.5731C9.11315 13.0768 8.4173 11.0247 9.51119 8.27667C9.51119 8.27667 11.201 7.74693 15.0118 10.329C18.2883 9.44604 21.7431 9.44604 25.0196 10.329C28.8307 7.74693 30.5205 8.27667 30.5205 8.27667C31.6128 11.0241 30.9179 13.0768 30.7194 13.5731C32.0118 14.9632 32.7755 16.7508 32.7755 18.9354C32.7755 26.6154 28.1034 28.3034 23.6295 28.8003C24.3588 29.4291 24.9878 30.6204 24.9878 32.5075C24.9878 35.1886 24.9557 37.3404 24.9557 38.0023C24.9557 38.5321 25.3203 39.1612 26.3143 38.9624C34.2677 36.3141 39.9999 28.8328 39.9999 19.9949C40.0295 8.937 31.049 0 20.0144 0Z" fill="white"/>
</g>
<defs>
<clipPath id="clip0_602_17">
<rect width="40" height="40" fill="white"/>
</clipPath>
</defs>
</svg>
